<svg width="35" height="35" viewBox="0 0 35 35" fill="none" xmlns="http://www.w3.org/2000/svg">
<path fill-rule="evenodd" clip-rule="evenodd" d="M30 1H5C2.79086 1 1 2.79086 1 5V30C1 32.2091 2.79086 34 5 34H30C32.2091 34 34 32.2091 34 30V5C34 2.79086 32.2091 1 30 1ZM5 0C2.23858 0 0 2.23858 0 5V30C0 32.7614 2.23858 35 5 35H30C32.7614 35 35 32.7614 35 30V5C35 2.23858 32.7614 0 30 0H5Z" fill="#353535"/>
<path fill-rule="evenodd" clip-rule="evenodd" d="M6 7C6.55228 7 7 6.55228 7 6C7 5.44772 6.55228 5 6 5C5.44772 5 5 5.44772 5 6C5 6.55228 5.44772 7 6 7ZM6 8C7.10457 8 8 7.10457 8 6C8 4.89543 7.10457 4 6 4C4.89543 4 4 4.89543 4 6C4 7.10457 4.89543 8 6 8Z" fill="#353535"/>
<path fill-rule="evenodd" clip-rule="evenodd" d="M29 7C29.5523 7 30 6.55228 30 6C30 5.44772 29.5523 5 29 5C28.4477 5 28 5.44772 28 6C28 6.55228 28.4477 7 29 7ZM29 8C30.1046 8 31 7.10457 31 6C31 4.89543 30.1046 4 29 4C27.8954 4 27 4.89543 27 6C27 7.10457 27.8954 8 29 8Z" fill="#353535"/>
<path fill-rule="evenodd" clip-rule="evenodd" d="M29 30C29.5523 30 30 29.5523 30 29C30 28.4477 29.5523 28 29 28C28.4477 28 28 28.4477 28 29C28 29.5523 28.4477 30 29 30ZM29 31C30.1046 31 31 30.1046 31 29C31 27.8954 30.1046 27 29 27C27.8954 27 27 27.8954 27 29C27 30.1046 27.8954 31 29 31Z" fill="#353535"/>
<path fill-rule="evenodd" clip-rule="evenodd" d="M6 30C6.55228 30 7 29.5523 7 29C7 28.4477 6.55228 28 6 28C5.44772 28 5 28.4477 5 29C5 29.5523 5.44772 30 6 30ZM6 31C7.10457 31 8 30.1046 8 29C8 27.8954 7.10457 27 6 27C4.89543 27 4 27.8954 4 29C4 30.1046 4.89543 31 6 31Z" fill="#353535"/>
<path fill-rule="evenodd" clip-rule="evenodd" d="M22 10H13V27H22V10ZM12 9V28H23V9H12Z" fill="#353535"/>
<path fill-rule="evenodd" clip-rule="evenodd" d="M22 19H13V18H22V19Z" fill="#353535"/>
<path d="M22 19H23V27H22V19Z" fill="#F9CE37"/>
<path fill-rule="evenodd" clip-rule="evenodd" d="M22.957 18.2969L25.0473 23L22.957 27.7031L22.0432 27.2969L23.953 23L22.0432 18.7031L22.957 18.2969Z" fill="#353535"/>
<path fill-rule="evenodd" clip-rule="evenodd" d="M13.457 18.2969L15.5473 23L13.457 27.7031L12.5432 27.2969L14.453 23L12.5432 18.7031L13.457 18.2969Z" fill="#353535"/>
<path fill-rule="evenodd" clip-rule="evenodd" d="M24.5 23.5H15V22.5H24.5V23.5Z" fill="#353535"/>
</svg>
